<mxfile host="app.diagrams.net" modified="2022-03-08T14:43:14.868Z" agent="5.0 (Windows NT 10.0; Win64; x64) AppleWebKit/537.36 (KHTML, like Gecko) Chrome/99.0.4844.51 Safari/537.36" etag="lYzxkXYWpquGMooEdGB9" version="16.6.5" type="github">
  <diagram id="6nH9EAd7ba0K6525fX5R" name="Page-1">
    <mxGraphModel dx="1038" dy="1716" grid="1" gridSize="10" guides="1" tooltips="1" connect="1" arrows="1" fold="1" page="1" pageScale="1" pageWidth="827" pageHeight="1169" math="0" shadow="0">
      <root>
        <mxCell id="0" />
        <mxCell id="1" parent="0" />
        <mxCell id="D86p9w4mNQFkNCMdPLSt-3" value="Usuario" style="shape=umlFrame;whiteSpace=wrap;html=1;" vertex="1" parent="1">
          <mxGeometry x="30" y="-30" width="260" height="670" as="geometry" />
        </mxCell>
        <mxCell id="D86p9w4mNQFkNCMdPLSt-1" value="" style="ellipse;html=1;shape=endState;fillColor=#000000;strokeColor=#ff0000;" vertex="1" parent="1">
          <mxGeometry x="360" y="760" width="30" height="30" as="geometry" />
        </mxCell>
        <mxCell id="D86p9w4mNQFkNCMdPLSt-4" value="Sistema" style="shape=umlFrame;whiteSpace=wrap;html=1;" vertex="1" parent="1">
          <mxGeometry x="290" y="-30" width="290" height="670" as="geometry" />
        </mxCell>
        <mxCell id="D86p9w4mNQFkNCMdPLSt-5" value="Empresa" style="shape=umlFrame;whiteSpace=wrap;html=1;" vertex="1" parent="1">
          <mxGeometry x="580" y="-30" width="300" height="670" as="geometry" />
        </mxCell>
        <mxCell id="D86p9w4mNQFkNCMdPLSt-6" value="login" style="rounded=1;whiteSpace=wrap;html=1;" vertex="1" parent="1">
          <mxGeometry x="100" y="70" width="90" height="30" as="geometry" />
        </mxCell>
        <mxCell id="D86p9w4mNQFkNCMdPLSt-7" value="" style="ellipse;whiteSpace=wrap;html=1;aspect=fixed;fillColor=#000000;" vertex="1" parent="1">
          <mxGeometry x="100" width="30" height="30" as="geometry" />
        </mxCell>
        <mxCell id="D86p9w4mNQFkNCMdPLSt-8" value="Busqueda de oferta" style="rounded=1;whiteSpace=wrap;html=1;fillColor=#FFFFFF;" vertex="1" parent="1">
          <mxGeometry x="100" y="130" width="90" height="30" as="geometry" />
        </mxCell>
        <mxCell id="D86p9w4mNQFkNCMdPLSt-9" value="" style="endArrow=none;html=1;rounded=0;exitX=1;exitY=0.5;exitDx=0;exitDy=0;entryX=0;entryY=0.5;entryDx=0;entryDy=0;" edge="1" parent="1" source="D86p9w4mNQFkNCMdPLSt-8" target="D86p9w4mNQFkNCMdPLSt-10">
          <mxGeometry width="50" height="50" relative="1" as="geometry">
            <mxPoint x="390" y="130" as="sourcePoint" />
            <mxPoint x="240" y="170" as="targetPoint" />
          </mxGeometry>
        </mxCell>
        <mxCell id="D86p9w4mNQFkNCMdPLSt-10" value="Buscar en BD" style="rounded=1;whiteSpace=wrap;html=1;fillColor=#FFFFFF;" vertex="1" parent="1">
          <mxGeometry x="340" y="130" width="90" height="30" as="geometry" />
        </mxCell>
        <mxCell id="D86p9w4mNQFkNCMdPLSt-12" value="" style="endArrow=none;html=1;rounded=0;exitX=0.5;exitY=1;exitDx=0;exitDy=0;entryX=0.5;entryY=0;entryDx=0;entryDy=0;" edge="1" parent="1" source="D86p9w4mNQFkNCMdPLSt-10">
          <mxGeometry width="50" height="50" relative="1" as="geometry">
            <mxPoint x="390" y="120" as="sourcePoint" />
            <mxPoint x="385" y="190" as="targetPoint" />
          </mxGeometry>
        </mxCell>
        <mxCell id="D86p9w4mNQFkNCMdPLSt-13" value="Listado ofertas" style="html=1;fillColor=#FFFFFF;" vertex="1" parent="1">
          <mxGeometry x="340" y="190" width="90" height="40" as="geometry" />
        </mxCell>
        <mxCell id="D86p9w4mNQFkNCMdPLSt-15" value="" style="shape=line;html=1;strokeWidth=6;strokeColor=#ff0000;fillColor=#FFFFFF;" vertex="1" parent="1">
          <mxGeometry x="260" y="265" width="200" height="10" as="geometry" />
        </mxCell>
        <mxCell id="D86p9w4mNQFkNCMdPLSt-16" value="" style="edgeStyle=orthogonalEdgeStyle;html=1;verticalAlign=bottom;endArrow=open;endSize=8;strokeColor=#ff0000;rounded=0;entryX=0.5;entryY=0;entryDx=0;entryDy=0;" edge="1" source="D86p9w4mNQFkNCMdPLSt-15" parent="1" target="D86p9w4mNQFkNCMdPLSt-17">
          <mxGeometry relative="1" as="geometry">
            <mxPoint x="360" y="345" as="targetPoint" />
            <Array as="points" />
          </mxGeometry>
        </mxCell>
        <mxCell id="D86p9w4mNQFkNCMdPLSt-17" value="Registro en la oferta" style="rounded=1;whiteSpace=wrap;html=1;fillColor=#FFFFFF;" vertex="1" parent="1">
          <mxGeometry x="100" y="300" width="120" height="60" as="geometry" />
        </mxCell>
        <mxCell id="D86p9w4mNQFkNCMdPLSt-18" value="Almaceno la consulta" style="rounded=1;whiteSpace=wrap;html=1;fillColor=#FFFFFF;" vertex="1" parent="1">
          <mxGeometry x="375" y="300" width="120" height="60" as="geometry" />
        </mxCell>
        <mxCell id="D86p9w4mNQFkNCMdPLSt-22" value="" style="endArrow=classic;html=1;rounded=0;exitX=0.75;exitY=0.5;exitDx=0;exitDy=0;exitPerimeter=0;entryX=0.5;entryY=0;entryDx=0;entryDy=0;" edge="1" parent="1" source="D86p9w4mNQFkNCMdPLSt-15" target="D86p9w4mNQFkNCMdPLSt-18">
          <mxGeometry width="50" height="50" relative="1" as="geometry">
            <mxPoint x="390" y="410" as="sourcePoint" />
            <mxPoint x="440" y="360" as="targetPoint" />
          </mxGeometry>
        </mxCell>
        <mxCell id="D86p9w4mNQFkNCMdPLSt-23" value="Almaceno el registro" style="rounded=1;whiteSpace=wrap;html=1;fillColor=#FFFFFF;" vertex="1" parent="1">
          <mxGeometry x="375" y="390" width="120" height="60" as="geometry" />
        </mxCell>
        <mxCell id="D86p9w4mNQFkNCMdPLSt-24" value="" style="endArrow=classic;html=1;rounded=0;entryX=0;entryY=0.5;entryDx=0;entryDy=0;exitX=0.5;exitY=1;exitDx=0;exitDy=0;" edge="1" parent="1" source="D86p9w4mNQFkNCMdPLSt-17" target="D86p9w4mNQFkNCMdPLSt-23">
          <mxGeometry width="50" height="50" relative="1" as="geometry">
            <mxPoint x="390" y="410" as="sourcePoint" />
            <mxPoint x="440" y="360" as="targetPoint" />
          </mxGeometry>
        </mxCell>
        <mxCell id="D86p9w4mNQFkNCMdPLSt-25" value="Envio un correo electronico" style="rounded=1;whiteSpace=wrap;html=1;fillColor=#FFFFFF;" vertex="1" parent="1">
          <mxGeometry x="375" y="470" width="120" height="60" as="geometry" />
        </mxCell>
        <mxCell id="D86p9w4mNQFkNCMdPLSt-26" value="" style="endArrow=classic;html=1;rounded=0;exitX=0.5;exitY=1;exitDx=0;exitDy=0;entryX=0.5;entryY=0;entryDx=0;entryDy=0;" edge="1" parent="1" source="D86p9w4mNQFkNCMdPLSt-23" target="D86p9w4mNQFkNCMdPLSt-25">
          <mxGeometry width="50" height="50" relative="1" as="geometry">
            <mxPoint x="390" y="400" as="sourcePoint" />
            <mxPoint x="440" y="350" as="targetPoint" />
          </mxGeometry>
        </mxCell>
        <mxCell id="D86p9w4mNQFkNCMdPLSt-27" value="" style="endArrow=classic;html=1;rounded=0;exitX=0;exitY=0.5;exitDx=0;exitDy=0;" edge="1" parent="1" source="D86p9w4mNQFkNCMdPLSt-25" target="D86p9w4mNQFkNCMdPLSt-28">
          <mxGeometry width="50" height="50" relative="1" as="geometry">
            <mxPoint x="390" y="400" as="sourcePoint" />
            <mxPoint x="440" y="350" as="targetPoint" />
          </mxGeometry>
        </mxCell>
        <mxCell id="D86p9w4mNQFkNCMdPLSt-28" value="Recibo un correo electronico" style="rounded=1;whiteSpace=wrap;html=1;fillColor=#FFFFFF;" vertex="1" parent="1">
          <mxGeometry x="90" y="470" width="120" height="60" as="geometry" />
        </mxCell>
        <mxCell id="D86p9w4mNQFkNCMdPLSt-29" value="Seleccion de usuario" style="rounded=1;whiteSpace=wrap;html=1;fillColor=#FFFFFF;" vertex="1" parent="1">
          <mxGeometry x="660" y="390" width="120" height="60" as="geometry" />
        </mxCell>
        <mxCell id="D86p9w4mNQFkNCMdPLSt-30" value="" style="endArrow=classic;html=1;rounded=0;exitX=1;exitY=0.5;exitDx=0;exitDy=0;entryX=0;entryY=0.5;entryDx=0;entryDy=0;" edge="1" parent="1" source="D86p9w4mNQFkNCMdPLSt-23" target="D86p9w4mNQFkNCMdPLSt-29">
          <mxGeometry width="50" height="50" relative="1" as="geometry">
            <mxPoint x="500" y="450" as="sourcePoint" />
            <mxPoint x="550" y="400" as="targetPoint" />
          </mxGeometry>
        </mxCell>
        <mxCell id="D86p9w4mNQFkNCMdPLSt-31" value="" style="shape=sumEllipse;perimeter=ellipsePerimeter;whiteSpace=wrap;html=1;backgroundOutline=1;fillColor=#FFFFFF;" vertex="1" parent="1">
          <mxGeometry x="520" y="317.5" width="40" height="25" as="geometry" />
        </mxCell>
        <mxCell id="D86p9w4mNQFkNCMdPLSt-32" value="" style="endArrow=classic;html=1;rounded=0;exitX=1;exitY=0.5;exitDx=0;exitDy=0;entryX=0;entryY=0.5;entryDx=0;entryDy=0;" edge="1" parent="1" source="D86p9w4mNQFkNCMdPLSt-18" target="D86p9w4mNQFkNCMdPLSt-31">
          <mxGeometry width="50" height="50" relative="1" as="geometry">
            <mxPoint x="390" y="390" as="sourcePoint" />
            <mxPoint x="440" y="340" as="targetPoint" />
          </mxGeometry>
        </mxCell>
        <mxCell id="D86p9w4mNQFkNCMdPLSt-33" value="" style="endArrow=classic;html=1;rounded=0;exitX=0.5;exitY=1;exitDx=0;exitDy=0;entryX=0.63;entryY=0.74;entryDx=0;entryDy=0;entryPerimeter=0;" edge="1" parent="1" source="D86p9w4mNQFkNCMdPLSt-13" target="D86p9w4mNQFkNCMdPLSt-15">
          <mxGeometry width="50" height="50" relative="1" as="geometry">
            <mxPoint x="360" y="270" as="sourcePoint" />
            <mxPoint x="410" y="220" as="targetPoint" />
          </mxGeometry>
        </mxCell>
      </root>
    </mxGraphModel>
  </diagram>
</mxfile>
